<?xml version="1.0" encoding="UTF-8"?>
<svg width="500" height="750" viewBox="0 0 500 750" fill="none" xmlns="http://www.w3.org/2000/svg">
    <rect width="500" height="750" fill="#1F1F1F"/>
    <path d="M250 300C283.137 300 310 273.137 310 240C310 206.863 283.137 180 250 180C216.863 180 190 206.863 190 240C190 273.137 216.863 300 250 300Z" fill="#2F2F2F"/>
    <path d="M350 450C350 483.137 323.137 510 290 510H210C176.863 510 150 483.137 150 450V390C150 356.863 176.863 330 210 330H290C323.137 330 350 356.863 350 390V450Z" fill="#2F2F2F"/>
    <path d="M250 375C261.046 375 270 366.046 270 355C270 343.954 261.046 335 250 335C238.954 335 230 343.954 230 355C230 366.046 238.954 375 250 375Z" fill="#3F3F3F"/>
    <path d="M290 415H210V425H290V415Z" fill="#3F3F3F"/>
    <path d="M290 435H210V445H290V435Z" fill="#3F3F3F"/>
    <path d="M290 455H210V465H290V455Z" fill="#3F3F3F"/>
</svg> 