<?xml version="1.0" encoding="UTF-8"?>
<svg width="1024" height="1024" viewBox="0 0 1024 1024" fill="none" xmlns="http://www.w3.org/2000/svg">
    <rect width="1024" height="1024" rx="224" fill="#1F1F1F"/>
    <path d="M512 224C354.6 224 224 354.6 224 512C224 669.4 354.6 800 512 800C669.4 800 800 669.4 800 512C800 354.6 669.4 224 512 224ZM512 736C387.7 736 288 636.3 288 512C288 387.7 387.7 288 512 288C636.3 288 736 387.7 736 512C736 636.3 636.3 736 512 736Z" fill="#FFD700"/>
    <path d="M512 352C425.3 352 352 425.3 352 512C352 598.7 425.3 672 512 672C598.7 672 672 598.7 672 512C672 425.3 598.7 352 512 352ZM512 608C461.1 608 416 562.9 416 512C416 461.1 461.1 416 512 416C562.9 416 608 461.1 608 512C608 562.9 562.9 608 512 608Z" fill="#FFD700"/>
    <path d="M512 480C496.5 480 480 496.5 480 512C480 527.5 496.5 544 512 544C527.5 544 544 527.5 544 512C544 496.5 527.5 480 512 480Z" fill="#FFD700"/>
</svg> 